<?xml version="1.0" encoding="UTF-8" standalone="no"?>
<!-- Created with Inkscape (http://www.inkscape.org/) -->

<svg
   width="192.75633mm"
   height="171.56026mm"
   viewBox="0 0 192.75633 171.56026"
   version="1.1"
   id="svg5"
   xmlns:inkscape="http://www.inkscape.org/namespaces/inkscape"
   xmlns:sodipodi="http://sodipodi.sourceforge.net/DTD/sodipodi-0.dtd"
   xmlns="http://www.w3.org/2000/svg"
   xmlns:svg="http://www.w3.org/2000/svg">
  <sodipodi:namedview
     id="namedview7"
     pagecolor="#ffffff"
     bordercolor="#000000"
     borderopacity="0.25"
     inkscape:showpageshadow="2"
     inkscape:pageopacity="0.0"
     inkscape:pagecheckerboard="0"
     inkscape:deskcolor="#d1d1d1"
     inkscape:document-units="mm"
     showgrid="false"
     showguides="true">
    <sodipodi:guide
       position="196.54393,-14.727544"
       orientation="0,-1"
       id="guide2325"
       inkscape:locked="false" />
  </sodipodi:namedview>
  <defs
     id="defs2" />
  <g
     inkscape:label="Layer 1"
     inkscape:groupmode="layer"
     id="layer1"
     transform="translate(-17.147587,-135.16969)">
    <g
       id="g2331">
      <rect
         style="fill:#552f25;fill-opacity:1;stroke:#552f25;stroke-width:2.15807;stroke-dasharray:none;stroke-opacity:1;paint-order:markers fill stroke"
         id="rect1429"
         width="190.59827"
         height="169.40219"
         x="18.226622"
         y="136.24873" />
      <g
         id="g1118"
         transform="matrix(0.99992416,0,0,1.0123319,1.8547847,48.840745)"
         style="fill:#ffffff;fill-opacity:1;stroke:#552f25;stroke-width:2.39735;stroke-dasharray:none;stroke-opacity:1"
         inkscape:export-filename="g1118.svg"
         inkscape:export-xdpi="96"
         inkscape:export-ydpi="96">
        <path
           id="path1108"
           style="fill:#ffffff;fill-opacity:1;stroke:#552f25;stroke-width:2.39735;stroke-dasharray:none;stroke-opacity:1;paint-order:markers fill stroke"
           d="m 31.385471,119.51056 c 0.137719,48.2974 -0.37989,65.55181 0,115.94279 32.832898,12.59001 52.014627,-31.38986 80.123789,-6.41046 0.0261,-3.35918 0.023,-6.54138 5.2e-4,-9.60355 -0.0219,3.04187 -0.0391,5.7614 -0.0646,9.04389 -24.821303,-26.17565 -52.411006,14.1764 -72.591948,-1.18855 -0.350481,-46.49 0.05651,-65.0705 0.01447,-105.54963 -0.05021,-0.004 -0.100232,-0.01 -0.150378,-0.014 0.04301,40.54816 -0.36102,59.31534 -0.01034,105.8323 20.153252,15.34389 47.694315,-24.87261 72.489116,1.08521 -1.5e-4,0.02 1.6e-4,0.0373 0,0.0574 -24.821274,-26.17562 -56.023732,18.1591 -76.204651,2.79414 -0.364392,-48.33509 0.09104,-66.46577 0.0078,-110.4656 -1.22592,-0.36433 -2.431463,-0.86214 -3.613732,-1.52394 z m 160.587939,0 c -0.13772,48.2974 0.37989,65.55181 0,115.94279 -32.8329,12.59001 -52.01463,-31.38986 -80.12379,-6.41046 -0.0261,-3.35918 -0.023,-6.54138 -5.2e-4,-9.60355 0.0219,3.04187 0.0391,5.7614 0.0646,9.04389 24.8213,-26.17565 52.41101,14.1764 72.59195,-1.18855 0.35048,-46.49 -0.0565,-65.0705 -0.0145,-105.54963 0.0502,-0.004 0.10023,-0.01 0.15038,-0.014 -0.043,40.54816 0.36102,59.31534 0.0103,105.8323 -20.15326,15.34389 -47.69432,-24.87261 -72.48912,1.08521 1.5e-4,0.02 -1.6e-4,0.0373 0,0.0574 24.82127,-26.17562 56.02373,18.1591 76.20465,2.79414 0.36439,-48.33509 -0.091,-66.46577 -0.008,-110.4656 1.22592,-0.36433 2.43146,-0.86214 3.61373,-1.52394 z" />
        <path
           id="path1111"
           style="fill:#ffffff;fill-opacity:1;stroke:#552f25;stroke-width:2.39735;stroke-dasharray:none;stroke-opacity:1;paint-order:markers fill stroke"
           d="m 90.658502,102.26121 c -19.12409,0.0868 -37.26333,16.43594 -51.93947,8.22068 0.13772,48.29741 -0.37989,65.55182 0,115.9428 20.18097,15.36497 47.77062,-24.98713 72.591948,1.18855 0.46404,-59.79888 0.31346,-77.94769 0.36846,-117.13135 -7.05768,-6.15563 -14.103708,-8.25207 -21.020938,-8.22068 z m -55.80125,12.42611 c 0.13773,48.29736 -0.37989,65.55186 0,115.94279 20.18094,15.36497 51.38335,-28.96979 76.204648,-2.79414 1.6e-4,-0.02 -1.5e-4,-0.0373 0,-0.0574 -24.794818,-25.95784 -52.335838,14.25869 -72.489108,-1.08521 -0.36434,-48.32835 0.0909,-66.46117 0.008,-110.44752 -1.26399,-0.36674 -2.50557,-0.87692 -3.72329,-1.55856 z m 97.843128,-12.42611 c 19.12409,0.0868 37.26333,16.43594 51.93947,8.22068 -0.13772,48.29741 0.37989,65.55182 0,115.9428 -20.18097,15.36497 -47.77062,-24.98713 -72.59195,1.18855 -0.46404,-59.79888 -0.31346,-77.94769 -0.36846,-117.13135 7.05768,-6.15563 14.10371,-8.25207 21.02094,-8.22068 z m 55.80125,12.42611 c -0.13773,48.29736 0.37989,65.55186 0,115.94279 -20.18094,15.36497 -51.38335,-28.96979 -76.20465,-2.79414 -1.6e-4,-0.02 1.5e-4,-0.0373 0,-0.0574 24.79482,-25.95784 52.33584,14.25869 72.48911,-1.08521 0.36434,-48.32835 -0.0909,-66.46117 -0.008,-110.44752 1.26399,-0.36674 2.50557,-0.87692 3.72329,-1.55856 z" />
      </g>
    </g>
  </g>
</svg>
