<?xml version="1.0" encoding="UTF-8" standalone="no"?>
<!-- Created with Inkscape (http://www.inkscape.org/) -->

<svg
   width="86.241776mm"
   height="86.214333mm"
   viewBox="0 0 86.241776 86.214332"
   version="1.1"
   id="svg438"
   xmlns="http://www.w3.org/2000/svg"
   xmlns:svg="http://www.w3.org/2000/svg">
  <defs
     id="defs435" />
  <g
     id="layer1"
     transform="translate(-43.738412,-61.377132)">
    <path
       id="rect611"
       style="fill:#668000;stroke-width:1;paint-order:markers fill stroke"
       d="m 81.238452,61.377132 c -1.015689,0 -1.83348,1.058719 -1.83348,2.374015 V 97.04834 L 46.10778,97.12999 c -1.315293,0.0032 -2.371857,0.823478 -2.369364,1.839164 l 0.02739,11.241686 c 0.0025,1.01569 1.063374,1.83051 2.378666,1.82728 l 33.260502,-0.0817 v 33.26102 c 0,1.3153 0.817791,2.37402 1.83348,2.37402 h 11.241691 c 1.01569,0 1.832963,-1.05872 1.832963,-2.37402 V 111.9203 l 33.297192,-0.0816 c 1.31529,-0.003 2.37237,-0.82399 2.36988,-1.83968 l -0.0274,-11.241174 c -0.002,-1.015686 -1.06338,-1.831023 -2.37866,-1.827795 l -33.261014,0.0816 V 63.751147 c 0,-1.315296 -0.817273,-2.374015 -1.832963,-2.374015 z" />
  </g>
</svg>
